<svg width="124" height="35" viewBox="0 0 124 35" fill="none" xmlns="http://www.w3.org/2000/svg">
<path d="M86 1.4C86 1.3 86 1.3 86 1.2L86.1 1.1L86.2 1C86.3 1 86.3 1 86.4 1H87.4C88.9 1 90.4 1.6 91.5 2.6C92.6 3.6 93.2 5 93.2 6.4V32.8C93.2 32.9 93.2 32.9 93.2 32.9L93.1 33L93 33.1C92.9 33.1 92.9 33.1 92.8 33.1H86.4C86.3 33.1 86.3 33.1 86.2 33.1C86.1 33.1 86.1 33.1 86.1 33L86 32.9V32.8V1.4Z" fill="#1E66D1"/>
<path d="M78 10.1375C79.1 11.1375 79.9 12.4375 80.5 13.7375C81.1 15.0375 81.2 16.5375 81 17.9375C80.8 19.0375 80.1 20.1375 79.1 20.8375C78.1 21.5375 76.8 21.9375 75.5 21.8375H60.6C61 22.8375 61.6 23.7375 62.4 24.4375C63.1 25.0375 63.9 25.5375 64.8 25.9375C65.7 26.2375 66.7 26.4375 67.6 26.4375C68.6 26.4375 69.5 26.2375 70.4 25.9375C71.3 25.6375 72.1 25.1375 72.8 24.4375C72.9 24.3375 73.1 24.2375 73.2 24.0375C73.2 24.0375 73.3 23.9375 73.4 23.9375C73.5 23.9375 73.5 23.9375 73.6 23.9375H80.9C81 23.9375 81 23.9375 81.1 23.9375C81.2 23.9375 81.2 24.0375 81.3 24.0375C81.3 24.1375 81.4 24.1375 81.4 24.2375C81.4 24.3375 81.4 24.3375 81.4 24.4375C80.7 26.2375 79.5 27.7375 78.1 29.1375C76.1 31.0375 73.4 32.3375 70.6 32.8375C67.8 33.3375 64.8 33.1375 62.1 32.0375C59.4 31.0375 57.1 29.3375 55.5 27.0375C53.9 24.8375 53 22.2375 53 19.5375C53 16.8375 53.9 14.2375 55.5 12.0375C57.1 9.83752 59.4 8.13752 62.1 7.03752C64.8 6.03752 67.7 5.73752 70.6 6.23752C73.3 7.03752 75.9 8.33752 78 10.1375ZM67.6 12.9375C66.1 12.9375 64.7 13.3375 63.5 14.1375C62.3 14.9375 61.3 15.9375 60.8 17.2375H72.7C72.9 17.2375 73.1 17.2375 73.3 17.1375C73.5 17.0375 73.6 16.8375 73.7 16.7375C73.9 16.2375 73.7 15.6375 73 15.0375C72.3 14.4375 71.5 13.8375 70.6 13.5375C69.6 13.0375 68.6 12.8375 67.6 12.9375Z" fill="#66BEEB"/>
<path d="M41.4 7H47.9C48 7 48 7 48.1 7C48.2 7 48.2 7 48.2 7.1L48.3 7.2C48.3 7.3 48.3 7.3 48.3 7.4V11.7C48.3 12 48.2 12.2 48.1 12.5C48 12.7 47.8 13 47.6 13.1C47.4 13.3 47.2 13.4 46.9 13.5C46.6 13.6 46.4 13.7 46.1 13.6H41.3V23.6C41.3 24.5 41.6 25.2 42.1 25.6C42.7 26.1 43.7 26.4 45 26.4C45.8 26.4 46.6 26.4 47.3 26.2C47.5 26.2 47.8 26 48 26.1C48.1 26.1 48.1 26.2 48.2 26.2C48.2 26.3 48.3 26.3 48.3 26.4V32.3C48.3 32.4 48.3 32.5 48.2 32.6C48.1 32.7 48 32.7 47.9 32.7C46.9 32.9 45.9 33 44.9 33C41.7 33 39.1 32.2 37.1 30.5C35 28.8 34 26.5 34 23.6V0.4C34 0.3 34 0.3 34 0.2C34 0.1 34 0.1 34.1 0.1L34.2 0C34.3 0 34.3 0 34.4 0H35.3C36.1 0 36.8 0.1 37.5 0.4C38.2 0.7 38.9 1.1 39.4 1.6C39.9 2.1 40.4 2.7 40.7 3.4C41 4.1 41.1 4.8 41.1 5.5V7H41.4Z" fill="#204086"/>
<path d="M24.9088 10C27.3088 12.2 28.8088 15.1 29.1088 18.2C29.4088 21.3 28.6088 24.4 26.7088 27C24.8088 29.6 22.0088 31.5 18.8088 32.4C15.6088 33.3 12.1088 33.1 9.00878 32C5.90878 30.8 3.30878 28.7 1.70878 25.9C0.108778 23.2 -0.391222 20 0.308778 16.9C1.00878 13.8 2.80878 11.1 5.40878 9.1C8.00878 7.1 11.3088 6 14.7088 6C16.6088 6 18.5088 6.3 20.3088 7C21.9088 7.8 23.5088 8.8 24.9088 10ZM9.30878 14.7C8.10878 15.8 7.30878 17.3 7.20878 18.8C7.00878 20.4 7.50878 21.9 8.40878 23.2C9.40878 24.5 10.8088 25.5 12.4088 25.9C14.0088 26.4 15.8088 26.3 17.4088 25.7C19.0088 25.1 20.3088 24 21.1088 22.6C21.9088 21.2 22.2088 19.6 21.8088 18.1C21.5088 16.6 20.6088 15.2 19.2088 14.2C17.9088 13.2 16.2088 12.7 14.5088 12.7C13.5088 12.7 12.6088 12.9 11.7088 13.2C10.8088 13.5 10.0088 14.1 9.30878 14.7Z" fill="#5494CF"/>
<path d="M123.587 3.62161C123.69 3.62161 123.69 3.62161 123.794 3.62161C123.794 3.62161 123.897 3.62161 123.897 3.76726L124 3.9129C124 4.05854 124 4.05855 124 4.20419V34.3527C124 34.4983 124 34.644 124 34.644C124 34.7896 123.897 34.7896 123.897 34.9353C123.794 34.9353 123.69 35.0809 123.587 34.9353C123.484 34.9353 123.381 34.9353 123.381 34.7896L104.913 18.623V30.2746C104.913 31.1485 104.706 31.8767 104.397 32.4593C104.19 32.7506 103.984 33.0419 103.675 33.1875C103.365 33.3332 103.159 33.4788 102.849 33.4788H98.4127C98.3095 33.4788 98.2064 33.3332 98.1032 33.3332C98 33.1875 98 33.0419 98 32.8962V1.72822C98 1.58258 98 1.43694 98 1.43694C98 1.29129 98.1032 1.29129 98.1032 1.14564C98.2064 1.14564 98.2063 1 98.3095 1C98.4127 1 98.4127 0.999998 98.5159 1.14564L116.984 17.4579V11.9234C116.984 9.73869 117.603 7.55402 118.635 5.95193C119.667 4.34983 121.008 3.47597 122.452 3.47597H123.587V3.62161Z" fill="#3000A0"/>
</svg>
